HIERARCHY
ROOT Hips
{
	OFFSET 0.000000 0.000000 0.000000
	CHANNELS 6 Xposition Yposition Zposition Xrotation Yrotation Zrotation
	JOINT LeftUpLeg_virtual
	{
		OFFSET 0.000000 0.000000 0.000000
		CHANNELS 3 Xrotation Yrotation Zrotation
		JOINT LeftUpLeg
		{
			OFFSET 10.205400 -3.823500 0.155100
			CHANNELS 3 Xrotation Yrotation Zrotation
			JOINT LeftLeg
			{
				OFFSET 0.708757 -12.982077 0.567790
				CHANNELS 3 Xrotation Yrotation Zrotation
				JOINT LeftFoot
				{
					OFFSET -0.708756 -10.717838 -2.184338
					CHANNELS 3 Xrotation Yrotation Zrotation
					JOINT LeftToeBase
					{
						OFFSET 0.108149 -7.191104 7.560241
						CHANNELS 3 Xrotation Yrotation Zrotation
						JOINT LeftToe_End
						{
							OFFSET 0.070230 0.081724 4.490308
							CHANNELS 3 Xrotation Yrotation Zrotation
							End Site
							{
								OFFSET 0 0 0
							}
						}
					}
				}
			}
		}
	}
	JOINT RightUpLeg_virtual
	{
		OFFSET 0.000000 0.000000 0.000000
		CHANNELS 3 Xrotation Yrotation Zrotation
		JOINT RightUpLeg
		{
			OFFSET -10.205400 -3.823500 0.005500
			CHANNELS 3 Xrotation Yrotation Zrotation
			JOINT RightLeg
			{
				OFFSET -0.708756 -12.982134 0.610632
				CHANNELS 3 Xrotation Yrotation Zrotation
				JOINT RightFoot
				{
					OFFSET 0.708754 -10.717769 -1.945823
					CHANNELS 3 Xrotation Yrotation Zrotation
					JOINT RightToeBase
					{
						OFFSET -0.108140 -7.191069 7.372968
						CHANNELS 3 Xrotation Yrotation Zrotation
						JOINT RightToe_End
						{
							OFFSET -0.070227 0.081735 4.479403
							CHANNELS 3 Xrotation Yrotation Zrotation
							End Site
							{
								OFFSET 0 0 0
							}
						}
					}
				}
			}
		}
	}
	JOINT Spine_virtual
	{
		OFFSET 0.000000 0.000000 0.000000
		CHANNELS 3 Xrotation Yrotation Zrotation
		JOINT Spine
		{
			OFFSET 0.000000 6.876099 0.125700
			CHANNELS 3 Xrotation Yrotation Zrotation
			JOINT Spine1
			{
				OFFSET 0.000000 5.730043 0.104720
				CHANNELS 3 Xrotation Yrotation Zrotation
				JOINT Spine1_split
				{
					OFFSET 0.000000 5.730043 0.104720
					CHANNELS 3 Xrotation Yrotation Zrotation
					JOINT Spine2
					{
						OFFSET 0.000000 5.730043 0.104720
						CHANNELS 3 Xrotation Yrotation Zrotation
						JOINT Neck_virtual
						{
							OFFSET 0.000000 0.000000 0.000000
							CHANNELS 3 Xrotation Yrotation Zrotation
							JOINT Neck
							{
								OFFSET 0.000000 10.314075 0.188496
								CHANNELS 3 Xrotation Yrotation Zrotation
								JOINT Head
								{
									OFFSET 0.000000 7.643700 -2.377400
									CHANNELS 3 Xrotation Yrotation Zrotation
									JOINT HeadTop_End
									{
										OFFSET 0.000000 43.788605 -13.619600
										CHANNELS 3 Xrotation Yrotation Zrotation
										End Site
										{
											OFFSET 0 0 0
										}
									}
								}
							}
						}
						JOINT LeftShoulder_virtual
						{
							OFFSET 0.000000 0.000000 0.000000
							CHANNELS 3 Xrotation Yrotation Zrotation
							JOINT LeftShoulder
							{
								OFFSET 2.196100 4.412489 0.087492
								CHANNELS 3 Xrotation Yrotation Zrotation
								JOINT LeftShoulder_split
								{
									OFFSET 2.196100 4.412489 0.087492
									CHANNELS 3 Xrotation Yrotation Zrotation
									JOINT LeftArm
									{
										OFFSET 8.771219 -2.981674 -0.026999
										CHANNELS 3 Xrotation Yrotation Zrotation
										JOINT LeftForeArm
										{
											OFFSET 8.512804 0.000000 -0.000000
											CHANNELS 3 Xrotation Yrotation Zrotation
											JOINT LeftHand
											{
												OFFSET 18.484802 0.000000 -0.000000
												CHANNELS 3 Xrotation Yrotation Zrotation
												End Site
												{
													OFFSET 0 0 0
												}
											}
										}
									}
								}
							}
						}
						JOINT RightShoulder_virtual
						{
							OFFSET 0.000000 0.000000 0.000000
							CHANNELS 3 Xrotation Yrotation Zrotation
							JOINT RightShoulder
							{
								OFFSET -2.196100 4.412496 0.070690
								CHANNELS 3 Xrotation Yrotation Zrotation
								JOINT RightShoulder_split
								{
									OFFSET -2.196100 4.412496 0.070690
									CHANNELS 3 Xrotation Yrotation Zrotation
									JOINT RightArm
									{
										OFFSET -8.771282 -2.981682 -0.094208
										CHANNELS 3 Xrotation Yrotation Zrotation
										JOINT RightForeArm
										{
											OFFSET -8.494598 0.000000 0.000000
											CHANNELS 3 Xrotation Yrotation Zrotation
											JOINT RightHand
											{
												OFFSET -18.483803 0.000000 0.000001
												CHANNELS 3 Xrotation Yrotation Zrotation
												End Site
												{
													OFFSET 0 0 0
												}
											}
										}
									}
								}
							}
						}
					}
				}
			}
		}
	}
}
MOTION
Frames: 9
Frame Time: 0.03333333
4.217902 22.130131 23.295177 0.000000 0.000000 0.000000 -15.010384 -41.102422 -10.365966 -53.562647 -16.043804 39.550757 64.945906 -13.847205 5.111929 -0.094667 -9.312307 -35.439072 0.828252 0.000002 0.000006 0.000000 0.000000 0.000000 -15.010384 -41.102422 -10.365966 -13.175232 2.511198 -61.459879 86.037741 27.799631 -6.995086 -18.882154 -11.021931 24.190595 -18.634129 -1.677109 10.295725 0.000000 0.000000 0.000000 -15.010384 -41.102422 -10.365966 25.864758 4.187706 -11.065354 -0.007327 0.740834 0.739483 0.000000 0.000000 0.000000 0.000000 0.000000 0.000000 -0.021548 0.795791 0.715259 3.577658 13.114687 1.876304 0.173867 21.052661 -5.722965 0.000000 0.000000 0.000000 -0.021548 0.795791 0.715259 0.779447 2.140484 -7.063359 0.000000 0.000000 0.000000 -57.357716 1.685999 -44.415559 179.999991 -67.639398 179.999991 0.000000 0.000000 0.000000 -0.021548 0.795791 0.715259 2.584191 13.110042 -5.955839 0.000000 0.000000 0.000000 -44.416693 22.208249 83.660016 179.999964 65.087263 179.999991 0.000000 0.000000 0.000000 
4.038023 22.360138 22.212315 0.000000 0.000000 0.000000 -14.574398 -41.950182 -8.828133 -50.938151 -13.196995 40.062925 56.151487 -13.101769 5.254411 4.744953 -10.135352 -37.571511 0.796540 0.000006 0.000004 0.000000 0.000000 0.000000 -14.574398 -41.950182 -8.828133 -9.511057 -0.890261 -60.541390 82.532106 29.782791 -6.843665 -28.682259 -17.694611 25.869159 -16.052299 -0.282510 4.299585 0.000000 0.000000 0.000000 -14.574398 -41.950182 -8.828133 22.956437 5.793331 -9.583895 0.646536 0.929547 0.134781 0.000000 0.000000 0.000000 0.000000 0.000000 0.000000 0.636327 0.960704 0.115371 4.340621 13.104365 0.961784 1.464761 20.711691 -6.151119 0.000000 0.000000 0.000000 0.636327 0.960704 0.115371 0.727749 3.026995 -7.324660 0.000000 0.000000 0.000000 -54.688604 2.382177 -44.353442 179.999991 -66.001443 179.999978 0.000000 0.000000 0.000000 0.636327 0.960704 0.115371 2.812990 13.874461 -5.932549 0.000000 0.000000 0.000000 -45.155839 21.957429 84.432975 179.999937 65.497457 -179.999991 0.000000 0.000000 0.000000 
3.810140 22.519073 21.090219 0.000000 0.000000 0.000000 -12.742408 -41.668399 -6.691074 -50.177551 -10.967210 39.740657 46.238427 -12.321196 5.372480 10.945440 -12.209658 -39.213472 0.664710 0.000002 0.000005 0.000000 0.000000 0.000000 -12.742408 -41.668399 -6.691074 -5.817305 -5.590836 -58.032661 76.795580 29.465897 -5.537733 -38.738217 -23.282453 26.089724 -12.268032 0.000094 0.000009 0.000000 0.000000 0.000000 -12.742408 -41.668399 -6.691074 19.339172 7.140023 -7.422406 1.352512 1.057877 -0.608382 0.000000 0.000000 0.000000 0.000000 0.000000 0.000000 1.352139 1.065428 -0.615882 5.139179 13.011477 -0.052973 2.198361 19.765680 -6.130645 0.000000 0.000000 0.000000 1.352139 1.065428 -0.615882 0.720605 3.654618 -7.622948 0.000000 0.000000 0.000000 -53.440817 2.217192 -44.400290 -179.999978 -65.283146 -179.999950 0.000000 0.000000 0.000000 1.352139 1.065428 -0.615882 2.810639 14.537257 -6.138990 0.000000 0.000000 0.000000 -46.080182 20.947475 84.878809 179.999950 65.647755 -179.999991 0.000000 0.000000 0.000000 
3.547693 22.964546 19.848911 0.000000 0.000000 0.000000 -10.199513 -40.499733 -4.181715 -50.634067 -9.382683 38.096230 39.606249 -11.027391 4.871854 13.200828 -13.156197 -39.153113 1.921903 0.000006 -0.000011 0.000000 0.000000 0.000000 -10.199513 -40.499733 -4.181715 -3.997177 -9.276182 -54.355427 71.500155 25.032148 -2.401111 -46.874314 -24.643428 23.809353 -6.023542 0.000032 0.000001 0.000000 0.000000 0.000000 -10.199513 -40.499733 -4.181715 16.106452 7.663249 -5.485193 1.874575 1.097747 -1.317245 0.000000 0.000000 0.000000 0.000000 0.000000 0.000000 1.886065 1.087219 -1.312155 5.491039 12.883360 -0.792213 2.478759 18.552093 -5.750199 0.000000 0.000000 0.000000 1.886065 1.087219 -1.312155 0.717237 3.924100 -7.764481 0.000000 0.000000 0.000000 -54.024471 1.701623 -44.671186 -179.999991 -65.480484 -179.999964 0.000000 0.000000 0.000000 1.886065 1.087219 -1.312155 2.470822 14.861049 -6.589042 0.000000 0.000000 0.000000 -47.485804 20.109954 84.599823 179.999978 65.662625 -179.999991 0.000000 0.000000 0.000000 
3.136687 23.916656 18.255281 0.000000 0.000000 0.000000 -7.924939 -39.011684 -1.816336 -52.173175 -7.885517 34.723135 40.430782 -10.156880 3.870509 9.618366 -11.732048 -35.449160 1.000672 0.000023 -0.000003 0.000000 0.000000 0.000000 -7.924939 -39.011684 -1.816336 -4.711981 -11.247851 -50.020204 69.495529 20.795459 -0.007020 -50.372659 -24.292085 21.948557 -0.361255 0.000034 -0.000004 0.000000 0.000000 0.000000 -7.924939 -39.011684 -1.816336 15.077656 7.275222 -5.047703 1.890071 1.066430 -1.668091 0.000000 0.000000 0.000000 0.000000 0.000000 0.000000 1.907838 1.047428 -1.659999 5.208636 12.741148 -1.088782 2.364862 17.474665 -5.540660 0.000000 0.000000 0.000000 1.907838 1.047428 -1.659999 0.742649 3.717757 -7.713964 0.000000 0.000000 0.000000 -56.055407 1.579852 -45.004499 179.999991 -66.385218 -179.999991 0.000000 0.000000 0.000000 1.907838 1.047428 -1.659999 1.776038 14.703114 -7.302569 0.000000 0.000000 0.000000 -48.721556 20.233720 83.907330 179.999978 65.349952 179.999991 0.000000 0.000000 0.000000 
2.890568 25.148159 16.788637 0.000000 0.000000 0.000000 -6.564102 -37.817992 -0.905179 -53.880477 -6.628045 30.621063 50.168241 -9.395304 3.522127 -0.469146 -9.576164 -30.956470 1.102922 -0.000011 -0.000002 0.000000 0.000000 0.000000 -6.564102 -37.817992 -0.905179 -6.881965 -11.697346 -45.683215 68.789075 17.145399 1.730722 -49.026978 -22.331843 20.479825 0.006678 -0.000005 0.012209 0.000000 0.000000 0.000000 -6.564102 -37.817992 -0.905179 16.339095 6.566587 -5.226918 1.373370 1.001738 -1.412960 0.000000 0.000000 0.000000 0.000000 0.000000 0.000000 1.387012 0.982564 -1.413533 4.544864 12.610620 -1.070823 1.848853 16.915011 -6.020234 0.000000 0.000000 0.000000 1.387012 0.982564 -1.413533 0.828000 3.119061 -7.612073 0.000000 0.000000 0.000000 -58.617797 1.942437 -45.501522 179.999937 -67.950642 179.999964 0.000000 0.000000 0.000000 1.387012 0.982564 -1.413533 1.113469 14.164124 -7.979217 0.000000 0.000000 0.000000 -49.589892 21.179798 83.157464 179.999978 64.711890 179.999978 0.000000 0.000000 0.000000 
2.748295 26.586132 15.190437 0.000000 0.000000 0.000000 -5.434221 -37.593054 -1.032491 -53.436145 -5.502540 28.083533 58.165959 -10.126728 3.093278 -4.602546 -9.158381 -31.608268 1.412285 -0.000029 0.000004 0.000000 0.000000 0.000000 -5.434221 -37.593054 -1.032491 -10.454775 -11.730111 -39.725944 68.189849 11.836163 2.772820 -46.317630 -18.917640 17.472823 -0.417949 -0.000018 -0.000005 0.000000 0.000000 0.000000 -5.434221 -37.593054 -1.032491 17.942656 5.905589 -5.477635 0.945065 0.916710 -0.876164 0.000000 0.000000 0.000000 0.000000 0.000000 0.000000 0.951745 0.908275 -0.883414 3.839369 12.597326 -1.023829 1.041536 17.112071 -6.902103 0.000000 0.000000 0.000000 0.951745 0.908275 -0.883414 0.926607 2.473418 -7.529188 0.000000 0.000000 0.000000 -61.452127 2.547737 -45.946536 179.999991 -69.184489 179.999978 0.000000 0.000000 0.000000 0.951745 0.908275 -0.883414 0.862096 13.730915 -8.246030 0.000000 0.000000 0.000000 -50.564853 22.193619 82.578961 179.999964 63.851013 -179.999978 0.000000 0.000000 0.000000 
2.628267 28.067272 13.512155 0.000000 0.000000 0.000000 -3.655504 -39.092929 -1.462317 -51.199784 -4.440696 26.477293 65.912487 -11.064699 2.811782 -8.484622 -8.828806 -31.757846 -1.783261 -0.092712 2.444672 0.000000 0.000000 0.000000 -3.655504 -39.092929 -1.462317 -16.145510 -11.213295 -33.639798 66.140881 8.615697 3.220901 -39.896340 -15.376868 15.418003 -1.168766 -0.003292 0.489401 0.000000 0.000000 0.000000 -3.655504 -39.092929 -1.462317 18.584402 5.737622 -5.977409 0.720061 0.872445 -0.238265 0.000000 0.000000 0.000000 0.000000 0.000000 0.000000 0.719155 0.884212 -0.248230 3.270745 12.777787 -1.215460 0.173271 17.958987 -7.450264 0.000000 0.000000 0.000000 0.719155 0.884212 -0.248230 0.948323 2.118897 -7.411330 0.000000 0.000000 0.000000 -64.084988 3.154205 -45.852931 -179.999964 -69.460947 -179.999964 0.000000 0.000000 0.000000 0.719155 0.884212 -0.248230 0.925591 13.841745 -8.192430 0.000000 0.000000 0.000000 -51.354820 22.664852 82.279184 179.999950 63.168226 -179.999978 0.000000 0.000000 0.000000 
2.514390 29.243557 11.824394 0.000000 0.000000 0.000000 -1.103617 -42.211911 -1.402841 -47.598837 -2.374810 25.045798 73.219437 -11.121296 2.418995 -15.555592 -8.504558 -28.053653 -6.998698 -0.448105 5.303322 0.000000 0.000000 0.000000 -1.103617 -42.211911 -1.402841 -22.527770 -10.433738 -28.760499 62.255658 8.571215 3.561921 -30.478978 -13.302855 16.856519 -4.009048 0.025120 -0.474249 0.000000 0.000000 0.000000 -1.103617 -42.211911 -1.402841 17.675201 6.109780 -6.774925 0.757171 0.896105 0.269477 0.000000 0.000000 0.000000 0.000000 0.000000 0.000000 0.749159 0.927228 0.260703 2.997425 13.072573 -1.666919 -0.500464 19.068676 -7.469096 0.000000 0.000000 0.000000 0.749159 0.927228 0.260703 0.878709 2.075251 -7.229555 0.000000 0.000000 0.000000 -66.734561 3.344163 -45.120083 179.999950 -69.273752 179.999964 0.000000 0.000000 0.000000 0.749159 0.927228 0.260703 1.016849 14.431442 -8.160440 0.000000 0.000000 0.000000 -52.247983 22.400539 82.443061 179.999978 63.250755 179.999991 0.000000 0.000000 0.000000 
